<svg xmlns="http://www.w3.org/2000/svg" width="312.688" height="148.173" viewBox="0 0 312.688 148.173">
  <g id="BYU_IM27c" transform="translate(-44.76 -66.6)">
    <g id="Group_350" data-name="Group 350" transform="translate(44.761 157.844)">
      <path id="Path_837" data-name="Path 837" d="M51.673,270.34c-1.289,0-1.984-.05-3.075-.05s-2.43.05-3.769.05c-.1,0-.1-.248.05-.3a6.828,6.828,0,0,0,2.232-.4c.4-.2.645-.893.645-6.794v-4.364c0-5.9-.248-6.546-.645-6.794a6.253,6.253,0,0,0-2.232-.4c-.1-.05-.1-.3-.05-.3,1.339,0,2.678.05,3.769.05s1.736-.05,3.075-.05c3.967,0,5.653,2.38,5.653,4.215s-1.289,3.322-3.174,4.314c3.223.694,4.959,2.579,4.959,5.058C59.111,267.513,56.93,270.34,51.673,270.34Zm-.1-18.745a4.541,4.541,0,0,0-1.934.248c-.1.1-.2,1.339-.2,4.909a16.122,16.122,0,0,0,.1,2.678,5.789,5.789,0,0,0,2.033.2c2.38,0,3.57-1.537,3.57-3.769C55.194,252.884,53.26,251.6,51.574,251.6Zm-.3,8.579a7.525,7.525,0,0,0-1.686.1,28.014,28.014,0,0,0-.1,4.215c0,2.975.149,4.413.347,4.661a4.623,4.623,0,0,0,2.678.546,4.175,4.175,0,0,0,4.413-4.364C56.93,262.158,54.5,260.174,51.276,260.174Z" transform="translate(-44.761 -250.802)" fill="#002e5d"/>
      <path id="Path_838" data-name="Path 838" d="M107.732,270.19a6.161,6.161,0,0,1-3.868-.992c-1.537-1.041-3.124-3.273-5.5-7.389a32.439,32.439,0,0,1-3.868-.05v.992c0,5.9.248,6.546.645,6.794a11.008,11.008,0,0,0,2.579.4c.149.05.149.3.05.3H89.93c-.1,0-.1-.248.05-.3a5.981,5.981,0,0,0,2.083-.4c.347-.2.645-.893.645-6.794v-4.364c0-5.9-.248-6.546-.645-6.794a5.447,5.447,0,0,0-2.083-.4c-.1-.05-.1-.3-.05-.3,1.289,0,2.529.05,3.62.05s2.281-.05,3.62-.05c4.463,0,6.347,2.479,6.347,4.761,0,2.38-1.488,4.215-3.57,5.5,4.017,5.951,6.5,8.579,8.579,8.579a5.1,5.1,0,0,0,.893-.05c.1,0,.1.347.05.347A6.3,6.3,0,0,1,107.732,270.19ZM97.17,251.644a9.276,9.276,0,0,0-2.38.248,35.309,35.309,0,0,0-.347,6.546c0,1.785.05,2.38.2,2.479a7.249,7.249,0,0,0,2.827.347c2.43,0,3.918-2.132,3.918-4.463C101.385,253.925,100.046,251.644,97.17,251.644Z" transform="translate(-67.496 -250.751)" fill="#002e5d"/>
      <path id="Path_839" data-name="Path 839" d="M139.53,270.34c-.1,0-.1-.248.05-.3a7.229,7.229,0,0,0,2.281-.4c.4-.2.645-.893.645-6.794v-4.364c0-5.9-.248-6.546-.645-6.794a6.92,6.92,0,0,0-2.281-.4c-.149-.05-.149-.3-.05-.3h7.736c.1,0,.1.248-.05.3a7.229,7.229,0,0,0-2.281.4c-.347.2-.645.893-.645,6.794v4.364c0,5.9.248,6.546.645,6.794a7.228,7.228,0,0,0,2.281.4c.1.05.1.3.05.3Z" transform="translate(-92.5 -250.802)" fill="#002e5d"/>
      <path id="Path_840" data-name="Path 840" d="M192.042,261.262a6.115,6.115,0,0,0-1.934.4c-.248.2-.4.793-.347,6.695v.248a12.6,12.6,0,0,1-6.4,1.686c-5.7,0-10.364-4.314-10.364-9.62A9.8,9.8,0,0,1,183.215,250.6c3.124,0,4.909,1.091,5.951.843.149-.05.2.05.2.1.05,1.041.149,2.678.149,4.314,0,.149-.347.149-.347-.05a4.457,4.457,0,0,0-1.141-2.38,8.143,8.143,0,0,0-5.058-2.083c-5.405,0-7.786,4.265-7.786,8.48,0,4.959,3.57,9.62,9.224,9.62a9.529,9.529,0,0,0,3.57-.694c-.05-6.248-.2-6.942-.446-7.042a8,8,0,0,0-2.281-.446c-.149,0-.149-.3-.05-.3h6.942C192.191,260.964,192.191,261.262,192.042,261.262Z" transform="translate(-109.407 -250.6)" fill="#002e5d"/>
      <path id="Path_841" data-name="Path 841" d="M240.969,270.34c-.1,0-.1-.248.05-.3a5.982,5.982,0,0,0,2.083-.4c.347-.2.645-.893.645-6.794v-1.984h-11.6v1.984c0,5.9.248,6.546.645,6.794a5.111,5.111,0,0,0,2.033.4c.1.05.1.3.05.3h-7.24c-.1,0-.1-.248.05-.3a5.982,5.982,0,0,0,2.083-.4c.347-.2.645-.893.645-6.794v-4.364c0-5.9-.248-6.546-.645-6.794a5.447,5.447,0,0,0-2.083-.4c-.1-.05-.1-.3-.05-.3h7.24c.1,0,.1.248-.05.3a5.359,5.359,0,0,0-2.033.4c-.4.2-.645.893-.645,6.794v1.587h11.6v-1.587c0-5.9-.248-6.546-.645-6.794a5.706,5.706,0,0,0-2.083-.4c-.1-.05-.1-.3-.05-.3h7.24c.1,0,.1.248-.05.3a5.982,5.982,0,0,0-2.083.4c-.347.2-.645.893-.645,6.794v4.364c0,5.9.248,6.546.645,6.794a5.706,5.706,0,0,0,2.083.4c.1.05.1.3.05.3Z" transform="translate(-136.911 -250.802)" fill="#002e5d"/>
      <path id="Path_842" data-name="Path 842" d="M295.15,270.239c-.1,0-.1-.248,0-.3.942-.1,1.686-.1,1.686-.546,0-.5-.545-2.132-2.38-6.645l-.05-.1h-6.1l-.05.1c-1.488,4.017-2.083,5.852-2.083,6.5,0,.545.645.6,1.934.694.1.05.1.3,0,.3h-5.6c-.1,0-.149-.248,0-.3a4.115,4.115,0,0,0,1.884-.5c.3-.2.843-.793,2.975-6.695l1.587-4.364c.942-2.529,1.934-5.108,2.628-7.438.1-.2.347-.2.4,0,.893,2.579,1.686,4.711,2.727,7.438l1.686,4.364c2.331,5.9,2.727,6.5,3.124,6.794a3.526,3.526,0,0,0,1.785.4c.1.05.1.3,0,.3Zm-3.818-15.968-2.727,7.587h5.554Z" transform="translate(-164.562 -250.701)" fill="#002e5d"/>
      <path id="Path_843" data-name="Path 843" d="M350.643,270.249c-.1,0-.149-.248,0-.3a4.679,4.679,0,0,0,1.785-.347c.3-.2.5-.942-.2-6.843l-.694-6.992-6.843,14.579a.193.193,0,0,1-.3-.05l-7.389-14.43-.5,6.744c-.545,6.05-.149,6.695.2,6.943a4.953,4.953,0,0,0,1.934.4c.1.05.1.3,0,.3h-6.3c-.1,0-.05-.248.05-.3a4.172,4.172,0,0,0,2.182-.5c.248-.2.645-.793,1.041-6.695l.3-4.364c.149-2.529.347-5.108.4-7.438.05-.149.347-.2.4-.05l8.381,16.612,7.736-16.612c.05-.1.347-.1.347.05.149,2.579.3,4.711.546,7.438l.446,4.364c.645,5.9.843,6.546,1.24,6.794a5.7,5.7,0,0,0,2.083.4c.1.05.2.3.1.3Z" transform="translate(-189.707 -250.71)" fill="#002e5d"/>
      <path id="Path_844" data-name="Path 844" d="M431.865,251.5c-.3.149-.645.545-2.827,4.165l-1.636,2.678c-.694,1.141-1.438,2.331-2.083,3.471v.992c0,5.9.248,6.6.645,6.794a7.227,7.227,0,0,0,2.281.4c.1.05.1.3.05.3h-7.736c-.1,0-.1-.248.05-.3a7.227,7.227,0,0,0,2.281-.4c.347-.2.645-.893.645-6.794v-.843c-.645-1.141-1.289-2.281-2.132-3.57l-1.686-2.678c-2.281-3.62-2.529-4.066-2.926-4.215a5.487,5.487,0,0,0-1.785-.248c-.149,0-.1-.3,0-.3h6.4c.1,0,.1.3,0,.3a6.175,6.175,0,0,0-1.686.2c-.248.149,0,.645,2.182,4.562l2.975,4.959,3.273-5.5c2.132-3.372,2.083-3.818,1.835-4.017a8.94,8.94,0,0,0-1.835-.248c-.1,0-.1-.3,0-.3H433.8c.1,0,.1.3,0,.3A5.829,5.829,0,0,0,431.865,251.5Z" transform="translate(-231.356 -250.751)" fill="#002e5d"/>
      <path id="Path_845" data-name="Path 845" d="M475.519,270.287a9.558,9.558,0,0,1-9.719-9.62A10.059,10.059,0,0,1,475.966,250.6a9.528,9.528,0,0,1,9.719,9.62A10.122,10.122,0,0,1,475.519,270.287Zm-.149-18.844c-5.356,0-7.438,4.513-7.438,8.381,0,4.86,3.422,9.62,8.182,9.62,5.306,0,7.389-4.513,7.389-8.381C483.5,256.2,480.131,251.443,475.371,251.443Z" transform="translate(-257.01 -250.6)" fill="#002e5d"/>
      <path id="Path_846" data-name="Path 846" d="M539.817,251.793c-.248.2-.5.843-.5,6.695V263.5a6.988,6.988,0,0,1-7.389,6.992c-4.661,0-7.488-3.075-7.488-6.943v-5.058c0-5.9-.248-6.546-.645-6.794a5.2,5.2,0,0,0-2.083-.4c-.1-.05-.1-.3-.05-.3h7.389c.1,0,.1.248-.05.3a6.067,6.067,0,0,0-2.132.4c-.4.2-.645.893-.645,6.794V263a5.947,5.947,0,0,0,6.3,6.347c3.67,0,5.653-2.678,5.653-6v-4.86c0-5.852-.248-6.5-.5-6.695a4.4,4.4,0,0,0-2.232-.5c-.149-.05-.1-.3,0-.3H541.8c.1,0,.1.248,0,.3C540.709,251.4,540.114,251.5,539.817,251.793Z" transform="translate(-285.156 -250.802)" fill="#002e5d"/>
      <path id="Path_847" data-name="Path 847" d="M596.364,251.8c-.248.248-.545.645-.545,6.546l.05,4.364c.05,2.529,0,5.157.149,7.488.05.149-.347.2-.5.05l-14.778-15.769.1,8.232c.05,5.455.446,6.248.843,6.6a5.03,5.03,0,0,0,2.182.5c.1,0,.1.4,0,.4h-6.843c-.1,0-.1-.347,0-.4a4.843,4.843,0,0,0,2.232-.545c.248-.248.545-.645.5-6.546l-.05-4.364c-.05-2.529-.05-5.157-.2-7.488,0-.149.446-.2.545-.05l14.827,15.869-.1-8.331c-.05-5.9-.5-6.347-.793-6.6a5.465,5.465,0,0,0-2.38-.5c-.1-.05-.1-.4,0-.4h6.943c.1,0,.1.347,0,.4A4.218,4.218,0,0,0,596.364,251.8Z" transform="translate(-313.041 -250.66)" fill="#002e5d"/>
      <path id="Path_848" data-name="Path 848" d="M655.742,261.262a6.115,6.115,0,0,0-1.934.4c-.248.2-.4.793-.347,6.695v.248a12.6,12.6,0,0,1-6.4,1.686c-5.7,0-10.364-4.314-10.364-9.62A9.8,9.8,0,0,1,646.915,250.6c3.124,0,4.909,1.091,5.951.843.149-.05.2.05.2.1.05,1.041.149,2.678.149,4.314,0,.149-.347.149-.347-.05a4.457,4.457,0,0,0-1.141-2.38,8.143,8.143,0,0,0-5.058-2.083c-5.405,0-7.786,4.265-7.786,8.48,0,4.959,3.57,9.62,9.224,9.62a9.529,9.529,0,0,0,3.57-.694c-.05-6.248-.2-6.942-.446-7.042a8,8,0,0,0-2.281-.446c-.149,0-.149-.3-.05-.3h6.943S655.891,261.262,655.742,261.262Z" transform="translate(-343.161 -250.6)" fill="#002e5d"/>
      <path id="Path_849" data-name="Path 849" d="M178.321,339.4c-.2.149-.347.446-.347,4.413v3.422a4.847,4.847,0,0,1-5.108,4.761c-3.174,0-5.207-2.083-5.207-4.711v-3.422c0-3.967-.149-4.364-.446-4.463a3.546,3.546,0,0,0-1.389-.347c-.1,0-.1-.248,0-.248h5.256c.05,0,.05.248,0,.248a4.259,4.259,0,0,0-1.488.347c-.248.1-.446.5-.446,4.463v2.926a4.023,4.023,0,0,0,4.165,4.314c2.479,0,3.719-1.835,3.719-4.066v-3.174c0-3.967-.2-4.265-.347-4.413a3,3,0,0,0-1.488-.4c-.1,0-.05-.248,0-.248h4.513c.05,0,.1.248,0,.248A2.653,2.653,0,0,0,178.321,339.4Z" transform="translate(-105.752 -295.062)" fill="#002e5d"/>
      <path id="Path_850" data-name="Path 850" d="M225.231,339.239c-.2.149-.4.446-.347,4.413v2.975c0,1.686,0,3.521.1,5.058,0,.1-.347.149-.446.05l-9.967-10.414.1,5.306c.05,3.67.3,4.265.546,4.463a4.032,4.032,0,0,0,1.438.347c.1,0,.05.248,0,.248h-4.81c-.05,0-.1-.248,0-.248a3,3,0,0,0,1.488-.4c.149-.149.4-.446.347-4.413l-.05-2.975c0-1.686,0-3.521-.1-5.058,0-.1.4-.149.446-.05l10.017,10.513-.1-5.356c0-3.967-.347-4.314-.545-4.463a3.079,3.079,0,0,0-1.587-.347c-.1,0-.05-.248,0-.248h4.86c.05,0,.1.248,0,.248A2.653,2.653,0,0,0,225.231,339.239Z" transform="translate(-128.959 -294.906)" fill="#002e5d"/>
      <path id="Path_851" data-name="Path 851" d="M261.624,351.892c-.05,0-.05-.248,0-.248a4.313,4.313,0,0,0,1.537-.347c.248-.149.446-.5.446-4.463v-2.975c0-3.967-.2-4.364-.446-4.463a5.021,5.021,0,0,0-1.537-.347c-.1,0-.1-.248,0-.248h5.455c.05,0,.1.248,0,.248a4.647,4.647,0,0,0-1.537.347c-.248.1-.446.5-.446,4.463v2.975c0,3.967.2,4.314.446,4.463a4.647,4.647,0,0,0,1.537.347c.1,0,.1.248,0,.248Z" transform="translate(-154.046 -295.062)" fill="#002e5d"/>
      <path id="Path_852" data-name="Path 852" d="M302.987,339.345c-.2.149-.545.446-2.182,4.413l-1.19,2.975c-.645,1.686-1.388,3.471-1.934,5.058-.05.149-.645.149-.694,0-.645-1.785-1.19-3.223-1.934-5.058l-1.19-2.975c-1.488-3.57-1.835-4.215-2.182-4.463a2.9,2.9,0,0,0-1.339-.347c-.1,0-.05-.248,0-.248H295.1c.05,0,.1.248,0,.248-.744.1-1.141.2-1.141.546s.2,1.24,1.488,4.265l2.232,5.8,2.281-5.8c1.091-2.777,1.289-3.719,1.289-4.165,0-.347-.347-.546-1.19-.645-.1,0-.05-.248,0-.248h4.165c.05,0,.1.248,0,.248A2.776,2.776,0,0,0,302.987,339.345Z" transform="translate(-168.531 -295.012)" fill="#002e5d"/>
      <path id="Path_853" data-name="Path 853" d="M344.4,351.494a1.009,1.009,0,0,1-.893.347c-1.24,0-2.479-.05-4.215-.05-1.289,0-1.934,0-3.372.05-.05,0-.05-.248,0-.248a3.546,3.546,0,0,0,1.388-.347c.248-.149.446-.5.446-4.463v-2.975c0-3.967-.2-4.364-.446-4.463a3.546,3.546,0,0,0-1.388-.347c-.1,0-.1-.248,0-.248,1.587,0,3.918.05,5.207.05a21.03,21.03,0,0,0,3.025-.1c.1,0,.1.05.1.1-.05.694-.1,1.488-.248,2.579,0,.1-.248.05-.248-.05a1.742,1.742,0,0,0-.347-1.289c-.347-.347-.992-.545-2.43-.545a14.119,14.119,0,0,0-1.736.05,20.657,20.657,0,0,0-.05,2.281v2.926h1.636c1.934,0,2.182-.2,2.331-.942,0-.1.3-.05.3,0-.05,1.091-.1,1.785-.1,2.926,0,.05-.3.05-.3,0a1.481,1.481,0,0,0-.3-.992c-.2-.2-.5-.347-1.934-.347H339.2v1.389c0,2.579.2,3.719.446,3.967s.645.4,1.884.4a3.1,3.1,0,0,0,2.331-.645,3.289,3.289,0,0,0,.645-1.389c0-.1.3-.05.248.05A5.81,5.81,0,0,1,344.4,351.494Z" transform="translate(-191.501 -295.012)" fill="#002e5d"/>
      <path id="Path_854" data-name="Path 854" d="M386.174,351.792a4.229,4.229,0,0,1-2.727-.694c-1.041-.694-2.132-2.083-3.769-4.909-.992.05-1.636,0-2.38,0v.545c0,3.967.2,4.314.446,4.463a6.034,6.034,0,0,0,1.785.347c.1,0,.1.248,0,.248h-5.5c-.05,0-.1-.248,0-.248a3.546,3.546,0,0,0,1.388-.347c.248-.149.446-.5.446-4.463v-2.975c0-3.967-.149-4.364-.446-4.463a3.546,3.546,0,0,0-1.388-.347c-.1,0-.1-.248,0-.248.893,0,1.835.05,2.579.05s1.537-.05,2.43-.05c3.025,0,4.413,1.686,4.413,3.223a4.4,4.4,0,0,1-2.43,3.769c2.678,4.066,4.413,5.7,5.8,5.7h.6c.1,0,.1.3.05.3A5.241,5.241,0,0,1,386.174,351.792Zm-7.141-12.447a3.025,3.025,0,0,0-1.388.248,15.09,15.09,0,0,0-.3,4.215c0,1.19.05,1.339.149,1.488a2.881,2.881,0,0,0,1.736.347,2.6,2.6,0,0,0,2.529-2.876C381.76,340.733,380.917,339.345,379.033,339.345Z" transform="translate(-210.707 -295.012)" fill="#002e5d"/>
      <path id="Path_855" data-name="Path 855" d="M419.153,351.789a4.076,4.076,0,0,1-3.174-1.24,10.02,10.02,0,0,1-.05-2.777c0-.1.3-.1.3,0a3.667,3.667,0,0,0,.645,1.884,3.007,3.007,0,0,0,2.529,1.388,2.289,2.289,0,0,0,2.43-2.43c0-3.025-5.405-3.521-5.405-6.843a3.46,3.46,0,0,1,3.62-3.372c1.537,0,1.835.545,2.579.347.1,0,.1,0,.1.05,0,.694.05,1.636,0,2.727,0,.1-.3.1-.3,0a2.927,2.927,0,0,0-.744-1.736,2.464,2.464,0,0,0-1.785-.744,1.954,1.954,0,0,0-2.132,2.033c0,2.529,5.6,3.57,5.6,6.893C423.467,350.5,421.236,351.789,419.153,351.789Z" transform="translate(-231.835 -294.861)" fill="#002e5d"/>
      <path id="Path_856" data-name="Path 856" d="M451.824,351.892c-.05,0-.05-.248,0-.248a4.314,4.314,0,0,0,1.537-.347c.248-.149.446-.5.446-4.463v-2.975c0-3.967-.2-4.364-.446-4.463a5.021,5.021,0,0,0-1.537-.347c-.1,0-.1-.248,0-.248h5.455c.05,0,.1.248,0,.248a4.647,4.647,0,0,0-1.537.347c-.248.1-.446.5-.446,4.463v2.975c0,3.967.2,4.314.446,4.463a4.647,4.647,0,0,0,1.537.347c.1,0,.1.248,0,.248Z" transform="translate(-249.927 -295.062)" fill="#002e5d"/>
      <path id="Path_857" data-name="Path 857" d="M494.049,341.325c0,.05-.3.05-.3-.05a2.245,2.245,0,0,0-.347-1.339c-.4-.4-1.339-.645-3.521-.645a4.048,4.048,0,0,0-.893.05,15.667,15.667,0,0,0-.1,2.281v4.959c0,3.967.2,4.314.446,4.463a5.022,5.022,0,0,0,1.537.347c.1,0,.1.248,0,.248h-5.455c-.05,0-.05-.248,0-.248a4.647,4.647,0,0,0,1.537-.347c.248-.149.446-.5.446-4.463v-4.959a10.391,10.391,0,0,0-.1-2.281c-.2,0-.545-.05-.992-.05-2.083,0-3.025.2-3.521.645a2.228,2.228,0,0,0-.6,1.388c0,.1-.3.05-.3-.05.1-1.041.248-2.132.3-2.827,0-.05.05-.1.149-.1a49.818,49.818,0,0,0,5.8.2c4.86,0,5.554-.149,5.9-.248.1,0,.1.05.1.1A20.3,20.3,0,0,1,494.049,341.325Z" transform="translate(-265.126 -294.81)" fill="#002e5d"/>
      <path id="Path_858" data-name="Path 858" d="M535.542,339.1c-.2.1-.545.248-2.033,2.727l-1.091,1.785c-.5.793-.992,1.587-1.438,2.331v.645c0,4.017.2,4.364.446,4.513a5.021,5.021,0,0,0,1.537.347c.1,0,.1.248,0,.248h-5.5c-.05,0-.05-.248,0-.248A4.313,4.313,0,0,0,529,351.1c.248-.149.446-.5.446-4.513v-.6c-.446-.793-.893-1.537-1.438-2.43l-1.141-1.785c-1.537-2.43-1.785-2.628-2.083-2.777a3.787,3.787,0,0,0-1.24-.2c-.1,0-.05-.248,0-.248H528.1c.05,0,.1.248,0,.248a1.9,1.9,0,0,0-.942.2c-.149.1-.149.3,1.339,2.579L530.534,345l2.083-3.422c1.438-2.281,1.24-2.479,1.091-2.628a3.219,3.219,0,0,0-1.091-.2c-.1,0-.05-.248,0-.248h4.166c.05,0,.1.248,0,.248C536.237,338.9,535.84,339,535.542,339.1Z" transform="translate(-286.089 -294.911)" fill="#002e5d"/>
    </g>
    <path id="Path_859" data-name="Path 859" d="M182.607,87.675V78.1a7.979,7.979,0,0,0-.1-1.289,9.976,9.976,0,0,0,1.339.1h7.19c5.5,0,8.728.843,8.728,5.852,0,3.223-1.984,6.149-8.48,6.149h-7.438a9.72,9.72,0,0,0-1.289.1S182.607,88.37,182.607,87.675Zm0,21.968V98.585a7.979,7.979,0,0,0-.1-1.289,9.718,9.718,0,0,0,1.289.1h6.1c4.86,0,10.81,0,10.81,6.744,0,5.009-4.265,6.744-9.967,6.744h-6.893a9.72,9.72,0,0,0-1.289.1S182.607,110.288,182.607,109.643Zm-17.455-38.63v46.019c0,1.488.1,2.033-.992,2.678a10.066,10.066,0,0,1-3.818,1.041h-.05c-.149.05-.149.694.05.694h37.242c15.72,0,22.315-6.248,22.315-15.968q0-10.786-9.967-13.24c-.1-.05-.1-.2,0-.2,4.215-1.339,8.083-4.364,8.083-11.852,0-10.166-6.843-13.587-21.819-13.587H160.342c-.149,0-.2.645-.05.694h.05a10.342,10.342,0,0,1,3.818,1.041C165.2,68.98,165.152,69.476,165.152,71.013Z" transform="translate(-58.187)" fill="#002e5d"/>
    <path id="Path_860" data-name="Path 860" d="M486.261,71.013c0-1.488-.1-2.033.992-2.678a10.067,10.067,0,0,1,3.818-1.041h.05c.149-.05.149-.694-.05-.694H463.6c-.149,0-.2.645-.05.694h.05a7.434,7.434,0,0,1,3.57,1.041c1.041.645.992,1.19.992,2.678V98.684c0,6.3-3.62,11.158-10.81,11.158s-10.81-4.86-10.81-11.158V71.013c0-1.488-.1-2.033.992-2.678a8.235,8.235,0,0,1,3.57-1.041h.05c.149-.05.149-.694-.05-.694H425.167c-.2,0-.149.645,0,.694h.05a3.349,3.349,0,0,1,2.182.6c.843.744.992,1.587.992,3.124V98.188c0,13.092,7.19,24.249,28.96,24.249s28.96-11.108,28.96-24.249V71.013Z" transform="translate(-191.7)" fill="#002e5d"/>
    <path id="Path_861" data-name="Path 861" d="M330.125,121.446c.149,0,.2-.645.05-.694h-.05a10.342,10.342,0,0,1-3.818-1.041c-1.041-.645-.992-1.19-.992-2.678V99.577l18.993-28.216a13.4,13.4,0,0,1,2.579-3.075c.149-.1.5-.347.694-.5a3.548,3.548,0,0,1,2.033-.5h.05c.149,0,.248-.694.05-.694H324.076c-.2,0-.149.694,0,.694h.05c1.24,0,2.777,0,2.529,1.785-.149,1.736-7.538,12.4-10.166,16.464a4.453,4.453,0,0,0-.793,1.934,5.072,5.072,0,0,0-.843-1.884c-3.67-5.455-9.918-14.282-10.116-16.464-.149-1.835,1.289-1.785,2.529-1.785h.05c.2,0,.248-.694.05-.694H280.487c-.149,0-.149.6,0,.694h.05a7.031,7.031,0,0,1,3.124.694c.149.1.545.347.694.446a12.275,12.275,0,0,1,2.43,2.926l18.993,28.068v17.6c0,1.488.1,2.033-.992,2.678a10.066,10.066,0,0,1-3.818,1.041h-.05c-.149.05-.149.694.05.694h29.159Z" transform="translate(-118.775 0)" fill="#002e5d"/>
    <path id="Path_862" data-name="Path 862" d="M352.309,214.893H160.646a.446.446,0,0,1,0-.893H352.309a.446.446,0,1,1,0,.893Z" transform="translate(-58.194 -74.305)" fill="#002e5d"/>
  </g>
</svg>
