<?xml version="1.0" encoding="UTF-8"?>
<!-- Generator: Adobe Illustrator 14.0.0, SVG Export Plug-In . SVG Version: 6.00 Build 43363)  -->
<svg xmlns="http://www.w3.org/2000/svg" xmlns:xlink="http://www.w3.org/1999/xlink" id="Calque_2" x="0px" y="0px" width="167.41px" height="189px" viewBox="0 4.351 167.41 189" xml:space="preserve">
<g id="XMLID_1_">
	<g>
		<polygon fill="#4392DA" points="151.63,136.28 127.72,149.971 106.2,137.37 106.2,161.931 87.94,172.801 87.72,100.851     105.98,90.63 105.98,114.541 127.5,77.811 151.19,64.551 121.85,117.15   "></polygon>
		<polygon fill="#4392DA" points="101.63,84.11 84.03,94.331 22.29,58.46 84.24,21.951 101.42,32.591 58.16,58.681   "></polygon>
		<path fill="#4392DA" d="M80.77,136.931v0.439l-0.22,3.04c-8.04,43.261-58.58,4.131-62.17-33.689l-0.22-1.521v-6.74l17.83,11.3    l0.05,4.399l0.38,1.69c7.18,24.56,24.78,21.52,25.87,13.26l0.22-1.74V90.42l18.26,10.43V136.931z"></path>
	</g>
	<g>
		<polygon fill="none" stroke="#4392DA" stroke-width="2" points="9.68,142.301 9.69,56.021 84.41,12.9 159.12,56.041     159.11,142.311 84.39,185.44   "></polygon>
	</g>
</g>
<g display="none">
	<g display="inline">
		<path d="M129.775,183.112l-1.875,4.878l-1.895-4.899v4.82h-1.386v-8.34h1.441l1.826,4.634l1.798-4.634h1.49v8.34h-1.401    L129.775,183.112L129.775,183.112z"></path>
		<path d="M137.836,187.907l-0.591-1.957h-2.621l-0.595,1.957h-1.454l2.608-8.336h1.534l2.587,8.336H137.836z M135.94,181.799    l-0.946,2.911h1.851L135.94,181.799z"></path>
		<path d="M142.727,187.907h-1.469v-7.096h-2.055v-1.24h5.563v1.24h-2.04V187.907L142.727,187.907z"></path>
		<path d="M150.097,184.188h-2.626v3.719h-1.403v-8.336h1.403v3.378h2.626v-3.378h1.402v8.336h-1.402V184.188z"></path>
		<path d="M152.99,179.571h4.862v1.24h-3.458v2.119h2.513v1.24h-2.513v2.497h3.67v1.238h-5.074V179.571z M155.471,178.878h-1.22    l1.66-1.802l1.494,0.049L155.471,178.878z"></path>
		<path d="M164.508,183.112l-1.875,4.878l-1.894-4.899v4.82h-1.386v-8.34h1.441l1.826,4.634l1.798-4.634h1.492v8.34h-1.403V183.112    L164.508,183.112z"></path>
		<path d="M172.568,187.907l-0.59-1.957h-2.621l-0.596,1.957h-1.452l2.605-8.336h1.534l2.587,8.336H172.568z M170.672,181.799    l-0.944,2.911h1.85L170.672,181.799z"></path>
		<path d="M177.459,187.907h-1.468v-7.096h-2.056v-1.24h5.562v1.24h-2.04L177.459,187.907L177.459,187.907z"></path>
		<path d="M180.964,179.571h1.519v8.369h-1.519V179.571z"></path>
		<path d="M189.296,187.269l0.555,0.873l-1.183,0.664l-0.565-0.914c-0.253,0.058-0.534,0.086-0.843,0.086    c-2.116,0-3.175-1.41-3.175-4.229c0-2.814,1.059-4.227,3.175-4.227c2.104,0,3.154,1.41,3.154,4.228    C190.415,185.444,190.042,186.615,189.296,187.269z M187.261,180.763c-1.159,0-1.74,0.998-1.74,2.989    c0,2.011,0.582,2.993,1.747,2.951l0.127-0.004l-0.496-0.774l1.182-0.662l0.439,0.711c0.306-0.512,0.459-1.252,0.459-2.222    C188.979,181.758,188.407,180.763,187.261,180.763z"></path>
		<path d="M194.575,187.94c-0.954,0-1.675-0.325-2.165-0.98c-0.448-0.598-0.672-1.377-0.672-2.339v-5.05h1.436v5.338    c0,1.193,0.47,1.791,1.4,1.791c0.851,0,1.274-0.598,1.274-1.791v-5.338h1.436v5.029    C197.284,186.828,196.383,187.94,194.575,187.94z"></path>
		<path d="M198.593,179.571h4.862v1.24h-3.459v2.138h2.513v1.239h-2.513v2.479h3.671v1.238h-5.074V179.571z"></path>
		<path d="M207.338,187.99c-0.521,0-1.051-0.175-1.588-0.521c-0.605-0.391-0.979-0.896-1.121-1.52l1.317-0.416    c0.069,0.251,0.25,0.492,0.541,0.73c0.288,0.234,0.634,0.354,1.029,0.354c0.892,0,1.338-0.299,1.338-0.896    c0-0.554-0.323-0.984-0.967-1.289c-0.534-0.192-1.283-0.535-2.249-1.021c-0.674-0.429-1.011-1.052-1.011-1.872    c0-0.652,0.238-1.15,0.715-1.499c0.478-0.347,1.157-0.521,2.037-0.521c1.362,0,2.238,0.545,2.633,1.633l-1.24,0.414    c-0.112-0.272-0.312-0.48-0.6-0.623c-0.285-0.143-0.562-0.217-0.831-0.217c-0.908,0-1.357,0.277-1.344,0.832    c0,0.389,0.253,0.707,0.754,0.959c0.143,0.068,0.848,0.379,2.119,0.934c0.924,0.388,1.385,1.167,1.385,2.329    c0,0.624-0.271,1.149-0.814,1.571C208.898,187.776,208.197,187.99,207.338,187.99z"></path>
		<path d="M221.786,187.907l-0.589-1.957h-2.62l-0.597,1.957h-1.453l2.606-8.336h1.534l2.586,8.336H221.786z M219.891,181.799    l-0.945,2.911h1.85L219.891,181.799z"></path>
		<path d="M226.017,184.399v3.508h-1.403v-8.336h3.172c0.757,0,1.354,0.236,1.786,0.707c0.435,0.473,0.653,1.043,0.653,1.707    c0,0.693-0.225,1.27-0.677,1.729c-0.447,0.457-1.077,0.686-1.894,0.686H226.017z M226.017,180.812v2.351h1.755    c0.679,0,1.017-0.379,1.017-1.136c0-0.811-0.338-1.215-1.017-1.215H226.017L226.017,180.812z"></path>
		<path d="M233.101,184.399v3.508h-1.403v-8.336h3.172c0.76,0,1.354,0.236,1.786,0.707c0.438,0.473,0.653,1.043,0.653,1.707    c0,0.693-0.225,1.27-0.674,1.729c-0.448,0.457-1.08,0.686-1.896,0.686H233.101z M233.101,180.812v2.351h1.757    c0.677,0,1.015-0.379,1.015-1.136c0-0.811-0.338-1.215-1.015-1.215H233.101L233.101,180.812z"></path>
		<path d="M238.831,179.571h1.403v7.129h3.279v1.24h-4.684L238.831,179.571L238.831,179.571z"></path>
		<path d="M244.923,179.571h1.518v8.369h-1.518V179.571z"></path>
		<path d="M253.252,187.269l0.557,0.873l-1.182,0.664l-0.569-0.914c-0.25,0.058-0.531,0.086-0.841,0.086    c-2.115,0-3.175-1.41-3.175-4.229c0-2.814,1.06-4.227,3.175-4.227c2.104,0,3.155,1.41,3.155,4.228    C254.372,185.444,253.998,186.615,253.252,187.269z M251.217,180.763c-1.158,0-1.737,0.998-1.737,2.989    c0,2.011,0.583,2.993,1.745,2.951l0.126-0.004l-0.493-0.774l1.181-0.662l0.438,0.711c0.308-0.512,0.461-1.252,0.461-2.222    C252.937,181.758,252.363,180.763,251.217,180.763z"></path>
		<path d="M258.531,187.94c-0.951,0-1.674-0.325-2.164-0.98c-0.447-0.598-0.672-1.377-0.672-2.339v-5.05h1.436v5.338    c0,1.193,0.468,1.791,1.4,1.791c0.849,0,1.275-0.598,1.275-1.791v-5.338h1.435v5.029    C261.241,186.828,260.339,187.94,258.531,187.94z"></path>
		<path d="M262.549,179.571h4.861v1.24h-3.458v2.119h2.512v1.24h-2.512v2.497h3.67v1.238h-5.073V179.571z M265.031,178.878h-1.221    l1.663-1.802l1.491,0.049L265.031,178.878z"></path>
		<path d="M268.669,179.571h4.861v1.24h-3.458v2.138h2.512v1.239h-2.512v2.479h3.67v1.238h-5.073V179.571z"></path>
		<path d="M277.413,187.99c-0.521,0-1.051-0.175-1.588-0.521c-0.605-0.391-0.98-0.896-1.121-1.52l1.314-0.416    c0.071,0.251,0.253,0.492,0.544,0.73c0.288,0.234,0.632,0.354,1.028,0.354c0.892,0,1.337-0.299,1.337-0.896    c0-0.554-0.321-0.984-0.966-1.289c-0.532-0.192-1.282-0.535-2.249-1.021c-0.673-0.429-1.01-1.052-1.01-1.872    c0-0.652,0.238-1.15,0.716-1.499c0.477-0.347,1.154-0.521,2.039-0.521c1.358,0,2.235,0.545,2.627,1.633l-1.237,0.414    c-0.112-0.272-0.312-0.48-0.601-0.623c-0.287-0.143-0.562-0.217-0.83-0.217c-0.909,0-1.357,0.277-1.344,0.832    c0,0.389,0.251,0.707,0.754,0.959c0.144,0.068,0.847,0.379,2.119,0.934c0.922,0.388,1.385,1.167,1.385,2.329    c0,0.624-0.271,1.149-0.812,1.571C278.974,187.776,278.272,187.99,277.413,187.99z"></path>
		<path d="M297.545,179.571h1.519v8.369h-1.519V179.571z"></path>
		<path d="M302.283,182.321v5.586h-1.435v-8.336h1.639l2.586,5.505v-5.505h1.403v8.336h-1.57L302.283,182.321z"></path>
		<path d="M309.621,182.949h2.153v1.239h-2.153v3.752h-1.403v-8.353h4.96v1.238h-3.557V182.949L309.621,182.949z"></path>
		<path d="M317.359,187.99c-2.117,0-3.175-1.416-3.175-4.245c0-2.814,1.058-4.223,3.175-4.223c2.102,0,3.153,1.406,3.153,4.223    C320.513,186.574,319.461,187.99,317.359,187.99z M317.359,180.763c-1.161,0-1.74,0.991-1.74,2.979    c0,1.986,0.579,2.978,1.74,2.978c1.146,0,1.719-0.991,1.719-2.978C319.078,181.754,318.506,180.763,317.359,180.763z"></path>
		<path d="M324.63,184.399h-1.286v3.508h-1.401v-8.336h3.192c0.757,0,1.351,0.222,1.775,0.656c0.426,0.438,0.645,1.023,0.645,1.762    c0.012,0.585-0.115,1.082-0.382,1.49c-0.265,0.412-0.602,0.67-1.007,0.783l1.389,3.645h-1.59L324.63,184.399z M323.344,180.812    v2.351h1.8c0.647,0,0.975-0.379,0.975-1.136c0-0.811-0.326-1.215-0.975-1.215H323.344L323.344,180.812z"></path>
		<path d="M334.198,183.112l-1.873,4.878l-1.896-4.899v4.82h-1.388v-8.34h1.441l1.827,4.634l1.8-4.634h1.489v8.34h-1.402    L334.198,183.112L334.198,183.112z"></path>
		<path d="M342.259,187.907l-0.591-1.957h-2.621l-0.595,1.957h-1.453l2.607-8.336h1.536l2.585,8.336H342.259z M340.363,181.799    l-0.946,2.911h1.85L340.363,181.799z"></path>
		<path d="M347.148,187.907h-1.468v-7.096h-2.057v-1.24h5.563v1.24h-2.04L347.148,187.907L347.148,187.907z"></path>
		<path d="M350.653,179.571h1.518v8.369h-1.518V179.571z"></path>
		<path d="M358.986,187.269l0.555,0.873l-1.181,0.664l-0.569-0.914c-0.251,0.058-0.531,0.086-0.841,0.086    c-2.116,0-3.175-1.41-3.175-4.229c0-2.814,1.059-4.227,3.175-4.227c2.104,0,3.155,1.41,3.155,4.228    C360.105,185.444,359.732,186.615,358.986,187.269z M356.95,180.763c-1.159,0-1.738,0.998-1.738,2.989    c0,2.011,0.583,2.993,1.745,2.951l0.126-0.004l-0.493-0.774l1.182-0.662l0.438,0.711c0.309-0.512,0.462-1.252,0.462-2.222    C358.671,181.758,358.097,180.763,356.95,180.763z"></path>
		<path d="M364.266,187.94c-0.952,0-1.675-0.325-2.164-0.98c-0.448-0.598-0.672-1.377-0.672-2.339v-5.05h1.435v5.338    c0,1.193,0.467,1.791,1.401,1.791c0.848,0,1.273-0.598,1.273-1.791v-5.338h1.436v5.029    C366.975,186.828,366.072,187.94,364.266,187.94z"></path>
		<path d="M368.283,179.571h4.86v1.24h-3.459v2.138h2.513v1.239h-2.513v2.479h3.671v1.238h-5.072V179.571L368.283,179.571z"></path>
	</g>
	<g display="inline">
		<path d="M286.89,183.528h3.359v1.892h-3.359V183.528z"></path>
	</g>
</g>
<g display="none">
	<g display="inline">
		<path fill="#1B171B" d="M182.583,147.733v13.07c0,1.316-0.438,2.4-1.312,3.246c-1.045,1.053-2.645,1.578-4.797,1.578    c-1.492,0-2.698-0.271-3.615-0.805c-0.554-0.323-1.097-0.836-1.631-1.533l2.75-1.021c0.577,0.736,1.418,1.107,2.526,1.107    c1.833,0,2.75-1.089,2.75-3.268v-12.377h3.328V147.733z"></path>
		<path fill="#1B171B" d="M186.714,147.733h9.804v2.07h-6.51v5.139h3.77v2.072h-3.77v6.428h6.836v2.07h-10.13V147.733    L186.714,147.733z"></path>
		<path fill="#1B171B" d="M207.808,147.733l5.306,17.779h-3.354l-1.535-4.859h-3.646l-1.622,4.859h-3.396l5.435-17.779H207.808z     M206.403,154.087l-1.024,4.118h2.149L206.403,154.087z"></path>
		<path fill="#1B171B" d="M219.763,155.013v10.502h-3.295v-17.731h3.294l4.667,10.021v-10.021h3.296v17.731h-3.302L219.763,155.013z    "></path>
		<path fill="#1B171B" d="M245.808,157.536l-1.627,2.623v5.354h-3.23v-17.798h3.23v7.084l4.566-7.084h3.591l-4.378,6.791    l4.561,11.007h-3.479L245.808,157.536z"></path>
		<path fill="#1B171B" d="M261.661,165.679c-2.066,0-3.61-0.559-4.634-1.669c-0.661-0.715-0.991-2.04-0.991-3.979v-12.297h3.294    v13.475c0,1.452,0.778,2.188,2.331,2.202c1.426,0,2.141-0.734,2.141-2.202v-13.475h3.295v12.229c0,1.973-0.342,3.314-1.023,4.023    c-0.681,0.652-1.342,1.097-1.982,1.336C263.451,165.56,262.644,165.679,261.661,165.679z"></path>
		<path fill="#1B171B" d="M274.543,155.013v10.502h-3.295v-17.731h3.293l4.667,10.021v-10.021h3.296v17.731h-3.301L274.543,155.013z    "></path>
		<path fill="#1B171B" d="M293.312,165.515h-3.426v-15.709h-3.866v-2.072h10.801v2.072h-3.509V165.515z"></path>
		<path fill="#1B171B" d="M300.04,163.379l6.137-13.56h-6.137v-2.086h9.527v2.152l-6.102,13.557h6.102v2.07h-9.527V163.379z"></path>
		<path fill="#1B171B" d="M322.736,154.825l-2.97,6.533l-3.001-6.533v10.736l-3.327-0.043v-17.785h3.419l2.878,5.957l2.842-5.957    h3.455v17.828h-3.296V154.825z"></path>
		<path fill="#1B171B" d="M337.631,147.733l5.307,17.779h-3.354l-1.537-4.859H334.4l-1.621,4.859h-3.396l5.437-17.779H337.631z     M336.225,154.087l-1.022,4.118h2.149L336.225,154.087z"></path>
		<path fill="#1B171B" d="M349.588,155.013v10.502h-3.295v-17.731h3.29l4.67,10.021v-10.021h3.295v17.731h-3.303L349.588,155.013z"></path>
		<path fill="#1B171B" d="M364.991,155.013v10.502h-3.295v-17.731h3.292l4.669,10.021v-10.021h3.295v17.731h-3.302L364.991,155.013z    "></path>
	</g>
</g>
<g display="none">
	<g display="inline">
		<path fill="#1B171B" d="M259.41,129.051h2.235v11.093h4.985v1.436h-7.222L259.41,129.051L259.41,129.051z"></path>
		<path fill="#1B171B" d="M274.919,129.051l3.598,12.527h-2.274l-1.033-3.427h-2.479l-1.109,3.427h-2.296l3.688-12.527H274.919z     M273.964,133.532l-0.693,2.892h1.457L273.964,133.532z"></path>
		<path fill="#1B171B" d="M285.687,129.051c1.271,0,2.183,0.267,2.73,0.8c0.478,0.469,0.716,1.215,0.716,2.237    c0,1.464-0.419,2.37-1.255,2.726c1.013,0.42,1.517,1.541,1.517,3.369c0.015,0.614-0.08,1.187-0.281,1.715    c-0.202,0.526-0.456,0.897-0.759,1.119c-0.521,0.375-1.461,0.562-2.818,0.562h-3.793v-12.527L285.687,129.051L285.687,129.051z     M283.979,134.123h1.752c0.777,0,1.167-0.595,1.167-1.786c0-0.533-0.042-0.913-0.128-1.146c-0.159-0.455-0.505-0.688-1.039-0.688    h-1.752V134.123z M283.979,140.127h1.815c0.638,0,1.023-0.265,1.169-0.8c0.043-0.156,0.065-0.607,0.065-1.35    c0-1.602-0.39-2.402-1.169-2.402h-1.882L283.979,140.127L283.979,140.127z"></path>
		<path fill="#1B171B" d="M296.994,128.983c1.721,0,2.863,0.461,3.428,1.381c0.578,0.988,0.866,2.723,0.866,5.195    c0,0.395-0.012,0.733-0.042,1.015c-0.146,1.243-0.216,1.868-0.216,1.881c-0.146,0.803-0.354,1.419-0.628,1.845    c-0.666,0.92-1.8,1.376-3.404,1.376c-1.632,0-2.751-0.462-3.355-1.39c-0.363-0.521-0.628-1.693-0.805-3.508    c-0.063-0.625-0.098-1.184-0.098-1.672c0-2.172,0.283-3.754,0.848-4.742c0.261-0.418,0.689-0.752,1.29-1.006    C295.479,129.11,296.183,128.983,296.994,128.983z M297.002,140.127c0.608,0.013,1.024-0.149,1.24-0.485    c0.437-0.688,0.691-1.938,0.763-3.754c0.002,0,0.002-0.238,0-0.721c0-0.354-0.006-0.62-0.021-0.799    c-0.13-1.635-0.371-2.732-0.719-3.285c-0.246-0.365-0.668-0.548-1.262-0.548s-1.015,0.179-1.264,0.532    c-0.346,0.604-0.587,1.707-0.717,3.301c-0.02,0.188-0.029,0.465-0.029,0.832c0,0.281,0.009,0.509,0.023,0.688    c0.042,1.795,0.303,3.045,0.785,3.754C296.036,139.968,296.436,140.127,297.002,140.127z"></path>
		<path fill="#1B171B" d="M310.559,135.403l2.04,6.224h-2.268l-1.927-5.89h-1.334v5.89h-2.234v-12.576h3.816    c0.809,0,1.54,0.142,2.189,0.425c1.129,0.586,1.692,1.59,1.692,3.01c0,0.681-0.195,1.293-0.587,1.834    c-0.304,0.439-0.674,0.755-1.106,0.943C310.771,135.304,310.677,135.353,310.559,135.403z M307.071,134.286h1.406    c1.094,0,1.645-0.628,1.645-1.885c0-1.266-0.551-1.899-1.645-1.899h-1.406V134.286z"></path>
		<path fill="#1B171B" d="M321.211,129.051l3.598,12.527h-2.273l-1.034-3.427h-2.479l-1.108,3.427h-2.297l3.688-12.527H321.211z     M320.257,133.532l-0.694,2.892h1.458L320.257,133.532z"></path>
		<path fill="#1B171B" d="M331.672,141.578h-2.315v-11.076h-2.626v-1.451h7.329v1.451h-2.388V141.578z"></path>
		<path fill="#1B171B" d="M340.792,128.983c1.723,0,2.864,0.461,3.43,1.381c0.578,0.988,0.868,2.723,0.868,5.195    c0,0.395-0.018,0.733-0.045,1.015c-0.144,1.243-0.217,1.868-0.217,1.881c-0.144,0.803-0.354,1.419-0.628,1.845    c-0.665,0.92-1.798,1.376-3.401,1.376c-1.634,0-2.752-0.462-3.359-1.39c-0.359-0.521-0.628-1.693-0.799-3.508    c-0.066-0.625-0.1-1.184-0.1-1.672c0-2.172,0.281-3.754,0.845-4.742c0.262-0.418,0.691-0.752,1.293-1.006    C339.277,129.11,339.982,128.983,340.792,128.983z M340.799,140.127c0.612,0.013,1.024-0.149,1.244-0.485    c0.436-0.688,0.689-1.938,0.764-3.754c0,0,0-0.238,0-0.721c0-0.354-0.01-0.62-0.023-0.799c-0.13-1.635-0.368-2.732-0.717-3.285    c-0.247-0.365-0.667-0.548-1.264-0.548c-0.595,0-1.015,0.179-1.26,0.532c-0.349,0.604-0.587,1.707-0.719,3.301    c-0.02,0.188-0.027,0.465-0.027,0.832c0,0.281,0.005,0.509,0.021,0.688c0.045,1.795,0.307,3.045,0.786,3.754    C339.834,139.968,340.231,140.127,340.799,140.127z"></path>
		<path fill="#1B171B" d="M348.845,129.051h2.316v12.527h-2.316V129.051z"></path>
		<path fill="#1B171B" d="M360.885,135.403l2.039,6.224h-2.266l-1.927-5.89h-1.336v5.89h-2.235v-12.576h3.818    c0.81,0,1.539,0.142,2.19,0.425c1.126,0.586,1.69,1.59,1.69,3.01c0,0.681-0.196,1.293-0.585,1.834    c-0.308,0.439-0.674,0.755-1.109,0.943C361.094,135.304,361,135.353,360.885,135.403z M357.396,134.286h1.404    c1.098,0,1.646-0.628,1.646-1.885c0-1.266-0.549-1.899-1.646-1.899h-1.404V134.286z"></path>
		<path fill="#1B171B" d="M366.479,129.051h6.655v1.451h-4.421v3.621h2.562v1.452h-2.562v4.552h4.634v1.451h-6.868V129.051z"></path>
	</g>
</g>
</svg>
